<?xml version="1.0" standalone="no"?>
<!DOCTYPE svg PUBLIC "-//W3C//DTD SVG 20010904//EN"
 "http://www.w3.org/TR/2001/REC-SVG-20010904/DTD/svg10.dtd">
<svg version="1.0" xmlns="http://www.w3.org/2000/svg"
 width="612.000000pt" height="408.000000pt" viewBox="0 0 612.000000 408.000000"
 preserveAspectRatio="xMidYMid meet">

<g transform="translate(0.000000,408.000000) scale(0.100000,-0.100000)"
fill="#000000" stroke="none">
<path d="M3850 3124 c-70 -43 -233 -115 -352 -154 -189 -63 -396 -103 -598
-116 -59 -4 -103 -12 -105 -18 -2 -6 -9 -99 -15 -206 -6 -107 -20 -312 -30
-455 -11 -142 -18 -261 -16 -262 3 -4 126 64 139 76 4 4 18 127 30 272 l22
264 105 7 c197 12 434 75 601 158 45 22 83 39 84 38 2 -2 -5 -66 -14 -143 -10
-77 -16 -142 -15 -144 4 -5 136 80 146 93 3 5 9 34 13 65 7 58 71 472 81 529
8 41 -4 41 -76 -4z"/>
<path d="M3950 2499 c-844 -509 -1584 -895 -2144 -1120 l-159 -64 54 -3 c130
-8 344 36 531 108 391 151 1155 600 1637 963 138 104 244 196 226 197 -5 0
-71 -37 -145 -81z"/>
<path d="M2240 2267 c0 -33 81 -77 140 -77 37 0 41 2 38 22 -4 33 -72 68 -130
68 -34 0 -48 -4 -48 -13z"/>
<path d="M2567 2264 c-13 -14 28 -78 44 -68 15 9 10 40 -9 57 -20 18 -26 20
-35 11z"/>
<path d="M4043 2245 c-17 -7 -36 -23 -43 -34 -10 -19 -8 -21 18 -21 33 0 82
34 82 56 0 17 -16 17 -57 -1z"/>
<path d="M3711 2195 c-35 -24 -66 -46 -68 -49 -2 -2 -13 -89 -23 -192 -30
-291 -26 -275 -58 -263 -97 38 -242 27 -349 -26 -197 -97 -241 -287 -92 -395
193 -139 558 -21 603 195 3 17 13 122 21 235 9 113 22 277 30 364 8 88 15 163
15 168 0 15 -15 8 -79 -37z"/>
<path d="M3920 2046 c0 -17 22 -26 61 -26 33 0 38 14 10 30 -29 15 -71 13 -71
-4z"/>
<path d="M2429 2017 c-42 -28 -39 -42 6 -41 40 1 85 28 85 49 0 23 -52 18 -91
-8z"/>
<path d="M2773 1616 c-66 -37 -73 -44 -73 -72 0 -17 -3 -59 -7 -93 -5 -58 -8
-62 -27 -56 -75 22 -141 27 -212 16 -202 -30 -350 -171 -328 -313 29 -177 313
-247 527 -131 71 39 144 123 161 186 14 49 43 471 35 494 -2 6 -36 -7 -76 -31z"/>
</g>
</svg>
