<?xml version="1.0" standalone="no"?>
<!DOCTYPE svg PUBLIC "-//W3C//DTD SVG 20010904//EN"
 "http://www.w3.org/TR/2001/REC-SVG-20010904/DTD/svg10.dtd">
<svg version="1.0" xmlns="http://www.w3.org/2000/svg"
 width="500.000000pt" height="500.000000pt" viewBox="0 0 500.000000 500.000000"
 preserveAspectRatio="xMidYMid meet">

<g transform="translate(0.000000,500.000000) scale(0.100000,-0.100000)"
fill="#000000" stroke="none">
<path d="M3760 3999 c-217 -112 -511 -209 -832 -273 -174 -36 -438 -65 -578
-66 -58 0 -111 -4 -119 -9 -13 -9 -16 -28 -41 -321 -15 -186 -32 -335 -76
-695 -37 -294 -43 -348 -44 -362 0 -6 53 15 119 48 l118 59 7 58 c3 31 15 122
25 202 11 80 29 215 40 300 11 85 23 174 27 196 l6 42 102 6 c242 17 520 70
731 141 58 20 166 63 284 112 16 7 15 4 -40 -335 -12 -73 -20 -134 -18 -137 6
-5 222 105 230 118 4 5 14 50 24 101 30 162 125 638 146 728 24 111 25 138 2
137 -10 0 -61 -23 -113 -50z"/>
<path d="M4065 3132 c-49 -26 -139 -74 -200 -106 -60 -33 -132 -71 -160 -86
-250 -136 -1132 -583 -1415 -717 -143 -68 -519 -243 -582 -272 -27 -11 -67
-30 -90 -40 -100 -45 -610 -260 -688 -291 -137 -53 -132 -58 38 -39 116 13
301 49 432 84 145 39 457 147 604 210 17 7 18 4 12 -31 -4 -21 -11 -74 -15
-117 -5 -43 -11 -80 -13 -83 -3 -2 -25 3 -49 12 -32 12 -78 17 -169 18 -134 1
-202 -15 -311 -69 -66 -34 -160 -123 -193 -185 -58 -107 -42 -241 40 -325 81
-84 192 -125 338 -125 111 0 192 17 278 60 191 95 263 202 283 420 10 114 45
453 50 497 l6 42 117 58 c600 297 1497 856 1756 1095 23 21 37 38 31 38 -5 0
-50 -22 -100 -48z"/>
<path d="M3576 2670 c-32 -22 -84 -56 -116 -76 -57 -35 -58 -36 -65 -92 -3
-31 -15 -113 -26 -182 -10 -69 -24 -161 -31 -205 -6 -44 -12 -81 -13 -83 -1
-1 -15 3 -31 9 -203 80 -475 29 -633 -117 -209 -193 -150 -446 128 -545 53
-19 87 -23 171 -23 58 0 130 6 160 13 187 46 352 182 395 326 12 39 29 167 65
490 12 104 27 221 40 315 14 101 24 210 19 210 -2 0 -30 -18 -63 -40z"/>
</g>
</svg>
